<?xml version="1.0" standalone="no"?>
<!DOCTYPE svg PUBLIC "-//W3C//DTD SVG 20010904//EN"
 "http://www.w3.org/TR/2001/REC-SVG-20010904/DTD/svg10.dtd">
<svg version="1.0" xmlns="http://www.w3.org/2000/svg"
 width="305.000000pt" height="305.000000pt" viewBox="0 0 305.000000 305.000000"
 preserveAspectRatio="xMidYMid meet">
<metadata>
Created by potrace 1.11, written by Peter Selinger 2001-2013
</metadata>
<g transform="translate(0.000000,305.000000) scale(0.100000,-0.100000)"
fill="#000000" stroke="none">
<path d="M1410 2598 c-340 -34 -662 -245 -824 -539 -71 -129 -113 -254 -132
-394 -9 -65 -8 -219 1 -270 4 -22 8 -53 10 -70 12 -100 108 -322 186 -426 159
-216 443 -395 670 -424 30 -4 57 -9 61 -12 12 -6 238 -5 283 2 93 15 174 36
233 59 228 90 421 250 539 446 33 56 51 92 94 195 35 83 63 248 62 370 -1 461
-296 866 -738 1013 -50 17 -108 33 -130 36 -22 4 -53 9 -70 12 -51 9 -166 10
-245 2z m345 -342 c278 -95 479 -331 521 -613 8 -55 5 -199 -6 -253 -34 -180
-120 -324 -264 -446 -88 -74 -135 -101 -236 -134 -103 -35 -154 -43 -265 -42
-322 2 -624 229 -714 537 -74 255 -20 522 145 714 109 128 255 217 418 256 30
7 106 12 186 10 117 -2 146 -6 215 -29z"/>
<path d="M1400 2269 c-73 -13 -93 -18 -140 -36 -101 -40 -177 -90 -256 -168
-130 -128 -195 -250 -221 -413 -9 -59 -9 -181 0 -248 23 -171 139 -356 304
-485 66 -52 175 -99 285 -124 109 -24 340 -5 416 35 10 4 36 16 60 26 74 30
178 114 253 204 117 140 169 297 163 492 -2 56 -5 112 -8 124 -11 49 -30 110
-38 119 -4 5 -8 17 -8 26 0 31 -116 193 -183 256 -138 128 -296 194 -477 197
-58 1 -125 -1 -150 -5z m215 -24 c294 -30 554 -274 615 -576 12 -63 15 -180 5
-254 -29 -212 -190 -432 -393 -534 -114 -57 -307 -87 -427 -66 -178 31 -297
93 -408 209 -120 126 -178 244 -203 411 -16 107 4 262 49 372 95 235 338 419
580 439 39 4 74 8 75 10 2 1 11 1 20 -1 10 -1 49 -6 87 -10z"/>
<path d="M1394 2215 c-225 -47 -417 -196 -504 -389 -52 -116 -64 -181 -62
-326 2 -171 67 -321 197 -455 134 -138 299 -208 490 -209 317 -1 576 190 672
496 38 118 37 276 0 398 -72 234 -254 407 -502 477 -69 19 -218 23 -291 8z"/>
</g>
</svg>
