<svg id="Layer_1" data-name="Layer 1" xmlns="http://www.w3.org/2000/svg" viewBox="0 0 275.85 276.14"><defs><style>.cls-1{fill:#fff;}.cls-2{fill:#1b1b37;}.cls-3{fill:#888b8c;}.cls-4{fill:#c9e5e0;}</style></defs><g id="Group_14" data-name="Group 14"><g id="Group_2" data-name="Group 2"><path id="Path_1" data-name="Path 1" class="cls-1" d="M194.57,130.59V270.78h76.06V245.7h-49.8V130.59Z"/><path id="Path_2" data-name="Path 2" class="cls-1" d="M134.92,2.6a44.72,44.72,0,0,0-19.57,3.91C100.66,13.56,97,29,97,42.48V70.8h27.83V39.33c0-7.07,4.11-11.65,10.47-11.65a10,10,0,0,1,7.25,2.84,12.06,12.06,0,0,1,3.22,8.81V70.8h27.84V42.48C173.63,17.14,159.52,2.6,134.92,2.6Z"/><g id="Group_1" data-name="Group 1"><path id="Path_3" data-name="Path 3" class="cls-1" d="M97,130.59V234.44c0,17.26,6,29,17.51,34.83a44.75,44.75,0,0,0,20.4,4.25c25,0,38.7-13.88,38.7-39.09V130.59H145.79v107a12,12,0,0,1-3.22,8.81,10,10,0,0,1-7.25,2.84c-6.36,0-10.47-4.57-10.47-11.65v-107Z"/></g><path id="Path_4" data-name="Path 4" class="cls-1" d="M54.93,130.59V220H53.58L27.66,133.2h-25V273.38H23.75V184H25.1L51,270.78h25V130.59Z"/></g><g id="Group_7" data-name="Group 7"><g id="Group_3" data-name="Group 3"><rect id="Rectangle_1" data-name="Rectangle 1" class="cls-2" x="223.43" y="130.59" width="5.21" height="112.5"/><path id="Path_5" data-name="Path 5" class="cls-2" d="M270.63,243.09h0v30.29h5.22V243.09Z"/></g><g id="Group_4" data-name="Group 4"><path id="Path_6" data-name="Path 6" class="cls-2" d="M131.23,31.33a6.71,6.71,0,0,0-2.64,2.72,11.4,11.4,0,0,0-1.14,5.29V70.8h5.22V39.34c0-4.48,1.84-7.61,5.26-8.65a8.82,8.82,0,0,0-2.6-.4A8,8,0,0,0,131.23,31.33Z"/><path id="Path_7" data-name="Path 7" class="cls-2" d="M140.13,0c-.89,0-1.74.07-2.59.1,24.7,1,38.69,16.92,38.69,42.38V70.8h5.21V42.48C181.44,16.13,166.49,0,140.13,0Z"/></g><g id="Group_5" data-name="Group 5"><path id="Path_8" data-name="Path 8" class="cls-2" d="M135.32,246.63a8.73,8.73,0,0,0,2.33-.32l.27-.08c-3.42-1-5.26-4.17-5.26-8.64v-107h-5.22v107C127.45,243.1,130.2,246.63,135.32,246.63Z"/><path id="Path_9" data-name="Path 9" class="cls-2" d="M176.22,130.59h0V234.44c0,12.58-3.44,23-10.33,30.29-6.44,6.81-15.95,10.82-28.43,11.31.89,0,1.74.1,2.67.1,27.53,0,41.3-16.53,41.3-41.7V130.59Z"/></g><g id="Group_6" data-name="Group 6"><path id="Path_10" data-name="Path 10" class="cls-2" d="M52.32,205.18v-16L34.81,130.59H29.6l22.28,74.59Z"/><path id="Path_11" data-name="Path 11" class="cls-2" d="M26.36,198.79v74.59h5.22V214.76l-4.77-16Z"/><rect id="Rectangle_2" data-name="Rectangle 2" class="cls-2" x="78.67" y="130.59" width="5.21" height="142.79"/><rect id="Rectangle_3" data-name="Rectangle 3" class="cls-2" x="52.32" y="189.22" height="15.97"/></g></g><g id="Group_12" data-name="Group 12"><g id="Group_8" data-name="Group 8"><path id="Path_12" data-name="Path 12" class="cls-3" d="M223.43,243.09V130.59h-2.61V245.7h49.81v-2.61Z"/><path id="Path_13" data-name="Path 13" class="cls-3" d="M194.56,270.78V130.59H192V273.38h78.68v-2.6Z"/></g><g id="Group_9" data-name="Group 9"><path id="Path_14" data-name="Path 14" class="cls-3" d="M137.53.1c-.87,0-1.72-.1-2.61-.1-13.56,0-23.39,4-30,10.9C97.75,18.41,94.4,29.36,94.4,42.48V70.8H97V42.48c0-13.5,3.65-28.91,18.33-36a44.73,44.73,0,0,1,19.58-3.9c24.59,0,38.7,14.53,38.7,39.87V70.8h2.6V42.48C176.22,17,162.24,1.15,137.53.1Z"/><path id="Path_15" data-name="Path 15" class="cls-3" d="M135.33,27.68c-6.37,0-10.48,4.58-10.48,11.65V70.8h2.61V39.33a11.23,11.23,0,0,1,1.14-5.28,6.8,6.8,0,0,1,2.64-2.73,8,8,0,0,1,4.09-1,8.82,8.82,0,0,1,2.6.4c3.42,1,5.26,4.17,5.26,8.64V70.8h2.6V39.33a12.06,12.06,0,0,0-3.22-8.81A10,10,0,0,0,135.33,27.68Z"/></g><g id="Group_10" data-name="Group 10"><path id="Path_16" data-name="Path 16" class="cls-3" d="M176.22,130.6h-2.6V234.44c0,25.21-13.74,39.09-38.7,39.09a44.88,44.88,0,0,1-20.4-4.25C103,263.45,97,251.7,97,234.45V130.6h-2.6V234.44c0,26,13,41.69,40.51,41.69.87,0,1.68-.06,2.52-.09h0c12.48-.49,22-4.5,28.43-11.32,6.88-7.27,10.32-17.7,10.32-30.28Z"/><path id="Path_17" data-name="Path 17" class="cls-3" d="M135.33,249.24a9.93,9.93,0,0,0,7.24-2.84,12.1,12.1,0,0,0,3.23-8.81v-107h-2.61v107c0,4.47-1.84,7.6-5.26,8.64l-.27.08a9.17,9.17,0,0,1-2.33.33h0c-5.11,0-7.87-3.54-7.87-9v-107h-2.61v107C124.84,244.67,129,249.24,135.33,249.24Z"/></g><g id="Group_11" data-name="Group 11"><path id="Path_18" data-name="Path 18" class="cls-3" d="M53.58,220h1.35v-89.4H52.32v74.59h-.44L29.6,130.59H0V273.38H2.61V133.2H27.66Z"/><path id="Path_19" data-name="Path 19" class="cls-3" d="M76.07,130.59V270.78H51L25.09,184H23.75v89.39h2.61V198.79h.44l22.28,74.59H78.67V130.59Z"/></g></g><g id="Group_13" data-name="Group 13"><path id="Path_20" data-name="Path 20" class="cls-4" d="M47.85,87.74v31.64H40.94V87.74H29V82H59.78v5.73Z"/><path id="Path_21" data-name="Path 21" class="cls-4" d="M78.93,113.91c4.76,0,8-3.28,8-9.32V82h6.92v22.64c0,9.73-6.51,15.36-14.9,15.36S64,114.37,64,104.64V82h6.92v22.59c0,6,3.27,9.32,8,9.32"/><path id="Path_22" data-name="Path 22" class="cls-4" d="M101,82h10.75c8.35,0,12.7,3.89,12.7,9.88a8.34,8.34,0,0,1-5.22,7.78,9.37,9.37,0,0,1,7.53,9.07c0,6.6-5.12,10.65-13.21,10.65H101Zm10.34,15.82c3.89,0,6.35-1.74,6.35-5s-2.46-5.06-6.35-5.06H107.8V97.82Zm1.8,15.82c3.94,0,6.6-2.05,6.6-5.37s-2.66-5.33-6.6-5.33H107.8v10.7Z"/><path id="Path_23" data-name="Path 23" class="cls-4" d="M169.08,100.7A19.1,19.1,0,1,1,150,81.39a19.1,19.1,0,0,1,19.1,19.31v0m-31.28,0A12.21,12.21,0,1,0,150,87.79a12.39,12.39,0,0,0-12.19,12.59c0,.11,0,.21,0,.32"/><path id="Path_24" data-name="Path 24" class="cls-4" d="M182,119.39h-6.92V82h10.55c8.25,0,14.14,4.26,14.14,11.58a10.46,10.46,0,0,1-7.33,10.25l11.62,15.56h-8L185.32,105H182Zm-.13-20h3.63c4.25,0,7.12-2.1,7.12-5.84s-2.87-5.89-7.12-5.89h-3.63Z"/><path id="Path_25" data-name="Path 25" class="cls-4" d="M241.62,99.52c0,.66,0,1.33,0,2,0,11.68-8.19,18.49-18.07,18.49a19.31,19.31,0,0,1,0-38.61,17.78,17.78,0,0,1,15.77,9.22l-5.79,3.48a11.27,11.27,0,0,0-10-6.2,12.42,12.42,0,0,0-12.14,12.68v.12a12.62,12.62,0,0,0,12.21,13h0a10.46,10.46,0,0,0,10.75-8.45H224.11V99.52Z"/></g></g></svg>
