<?xml version="1.0" encoding="utf-8"?>
<!-- Generator: Adobe Illustrator 24.1.0, SVG Export Plug-In . SVG Version: 6.00 Build 0)  -->
<svg version="1.1" id="Lag_1" xmlns="http://www.w3.org/2000/svg" xmlns:xlink="http://www.w3.org/1999/xlink" x="0px" y="0px"
	 viewBox="0 0 75 75" style="enable-background:new 0 0 75 75;" xml:space="preserve">
<style type="text/css">
	.st0{fill:#BEE0DA;}
	.st1{fill:#1B1B37;}
</style>
<circle id="Ellipse_2" class="st0" cx="37.42" cy="37.87" r="27.1"/>
<path id="Search" class="st1" d="M49.4,46.97l-4.76-4.76c3.31-4.15,2.64-10.2-1.51-13.51s-10.2-2.64-13.51,1.51
	s-2.64,10.2,1.51,13.51c3.51,2.8,8.49,2.8,12,0l4.76,4.76c0.4,0.43,1.08,0.46,1.51,0.06c0.43-0.4,0.46-1.08,0.06-1.51
	C49.44,47.01,49.42,46.99,49.4,46.97L49.4,46.97z M37.13,43.69c-4.13,0-7.48-3.35-7.48-7.48s3.35-7.48,7.48-7.48
	s7.48,3.35,7.48,7.48l0,0C44.61,40.34,41.26,43.69,37.13,43.69z"/>
</svg>
